PathFileType	4	(X/Y/Z)	Patient4_TMGait_0pt8_01_right_18.trc.trc
DataRate	CameraRate	NumFrames	NumMarkers	Units	OrigDataRate	OrigDataStartFrame	OrigNumFrames
87.500000000000	87.500000000000	6	33	mm	87.500000000000	106	       141
Frame#	Time	Sacral			L.Shoulder			Chest			R.Shoulder			Neck			R.ASIS			L.ASIS			R.Thigh.Superior			R.Thigh.Lateral			R.Thigh.Inferior			R.Patella			L.Thigh.Superior			L.Thigh.Lateral			L.Thigh.Inferior			L.Patella			L.Shank.Superior			L.Shank.Lateral			L.Shank.Inferior			R.Shank.Superior			R.Shank.Lateral			R.Shank.Inferior			R.Heel			R.Midfoot.Superior			R.Midfoot.Lateral			R.Toe			L.Heel			L.Midfoot.Lateral			L.Midfoot.Superior			L.Toe			L.Elbow			L.Wrist			R.Elbow			R.Wrist			
		X1	Y1	Z1	X2	Y2	Z2	X3	Y3	Z3	X4	Y4	Z4	X5	Y5	Z5	X6	Y6	Z6	X7	Y7	Z7	X8	Y8	Z8	X9	Y9	Z9	X10	Y10	Z10	X11	Y11	Z11	X12	Y12	Z12	X13	Y13	Z13	X14	Y14	Z14	X15	Y15	Z15	X16	Y16	Z16	X17	Y17	Z17	X18	Y18	Z18	X19	Y19	Z19	X20	Y20	Z20	X21	Y21	Z21	X22	Y22	Z22	X23	Y23	Z23	X24	Y24	Z24	X25	Y25	Z25	X26	Y26	Z26	X27	Y27	Z27	X28	Y28	Z28	X29	Y29	Z29	X30	Y30	Z30	X31	Y31	Z31	X32	Y32	Z32	X33	Y33	Z33	

106	21.180000000000	885.670557266931	1013.130718240131	414.961108322496	1090.172802962998	1444.019539735235	259.710095310290	1174.859377692058	1368.770469103005	428.732176109204	1073.105892344234	1439.758704717778	595.045724902886	1069.492815016364	1501.059307783503	414.631000353978	1102.142266645678	950.906050166731	550.708976794195	1112.802590902798	968.833222454952	276.338720395483	1201.219764147414	802.580506265290	523.720385654693	1178.645403025168	680.738679774633	602.437721969817	1274.337790120899	651.456837949896	527.284657155143	1308.744270972436	542.343311269517	555.457313752655	1144.603233871116	748.171644139550	309.393680229535	1048.260073811649	637.820620603599	247.026800780913	1120.581764596991	554.873919397486	316.961614464481	1114.465255005300	487.590077702111	329.048038111557	1088.521725575995	417.493942194666	320.410942240213	999.574498661003	302.919617202554	270.548088370886	1045.481118459565	193.445796263861	347.014641702734	1241.363371449810	458.015127318352	562.506728063518	1121.905722390373	404.112971681207	614.814959794784	1127.585707361345	291.776832877625	571.968135644742	941.640769352398	208.902913734379	529.894046953591	1109.566417490274	163.209128106678	589.552522894060	996.973799024346	153.710022559982	609.695497783068	1177.515611424032	52.746366428941	621.406678923309	914.701059023621	39.005746603568	391.716442583772	988.562872730352	35.904084787461	310.764755880730	1072.109111161952	96.857071737553	337.959518359929	1200.512757979951	43.476445776908	309.193415396765	1117.791794722695	1103.978020243838	114.674649844684	1320.771569848215	938.372816981136	121.525909458787	1022.916390380295	1085.949688130513	692.358241041293	1132.084785883890	848.359330542777	690.078104351395	
107	21.191428571429	884.413331671043	1012.938059546932	414.019087141721	1090.982211417143	1444.106571418041	260.200621690952	1174.274644296298	1368.166007374592	429.589172255393	1071.641890606836	1438.960841330123	595.427869759782	1069.295019660547	1500.816962986412	415.023248203642	1100.436715756635	950.921192241129	550.763926445487	1111.712148020238	968.507227073014	276.241701478345	1200.530625804624	804.492484823403	524.242590969991	1178.492080860659	681.985157089629	602.780933814402	1275.125781949599	653.920709020322	528.440557583438	1311.015495301961	546.521535651030	556.343249522727	1140.971240950576	746.894671979816	309.484911316910	1043.310342134138	637.737572193770	246.496572868755	1114.097815828004	553.824623868846	316.476480716093	1107.090938160753	486.853542276027	328.473541894838	1080.976105689354	417.019982889532	319.928980112688	991.486157986439	302.845394269011	270.113881501287	1036.762908290234	193.238173821131	346.811544313685	1247.724414653665	460.052619806349	563.184787389350	1132.080762561011	399.675973917597	616.384840314531	1143.654115960998	287.826643852313	573.247291478001	962.360487759700	194.542343191468	532.686689914180	1133.194331109501	158.640394635706	590.969214062270	1021.454929087320	142.750032552444	612.028749296316	1207.490384499692	52.241646617101	622.193093582012	905.506882798864	39.064499584218	391.654665800468	979.356537806517	35.877109067313	310.720497280323	1062.957465004483	96.808356199671	337.857361460255	1191.348920211612	43.354547942490	309.140522768031	1125.715999515943	1106.374028905933	112.775713103086	1337.314096131501	952.397645662637	121.530757701582	1014.442649953006	1085.932898676658	691.764063083166	1103.490322144216	839.732565995956	692.651030174173	
108	21.202857142857	883.316327318643	1012.685524209398	413.258021768826	1091.746401907322	1444.118563005274	260.837670534496	1173.804207012913	1367.455982499714	430.488021878753	1070.426928426510	1438.024090871829	595.934658437924	1069.173202234544	1500.459166784870	415.559469579117	1098.951016337196	950.741937028930	550.836896854825	1110.676810872778	968.090582271993	276.157718841223	1199.609208177166	805.599487088412	524.883004247321	1177.496648971946	682.431531078141	603.156321662255	1275.026789504737	655.298943239047	529.624687572621	1312.059439220717	549.806338980976	557.083357882232	1137.433240960304	745.570746969481	309.555569415583	1038.384031108805	637.622268389791	246.032122973316	1107.666252463326	552.770769065671	316.012418281597	1099.806468962520	486.113175636533	327.900726610738	1073.471839981536	416.529407748684	319.478767575677	983.407371611815	302.777179141275	269.714963548402	1028.043212331060	193.023114836623	346.640610220250	1253.187748215255	461.499836782924	563.793387642270	1142.182013658332	394.552658283334	618.294144476836	1159.852740262009	283.585849425060	574.757348060167	984.230366425559	179.593146153489	536.172602297467	1157.437850613218	154.093917940739	592.598436522388	1047.115417973579	131.680049740364	614.923636556711	1238.105565040171	52.497264761904	623.152356848811	896.315565572241	39.129229963331	391.591021227224	970.143866043910	35.850400514370	310.681813968743	1053.794757868363	96.763995871978	337.761788531690	1182.167874909514	43.252730487676	309.093794842198	1133.234215845934	1108.841666264162	111.108547111824	1352.624292150390	966.824069994102	121.988291230150	1005.450201328574	1086.226994609411	691.297008914151	1075.157091107115	833.605030274026	695.024199214329	
109	21.214285714286	882.406303732309	1012.363345509369	412.679656404850	1092.454550226537	1444.050102461427	261.616623681844	1173.440472147038	1366.645933422560	431.431153220461	1069.446644951598	1436.959139913421	596.567247589516	1069.122506021394	1499.985151524394	416.237392123385	1097.721670227113	950.379403918178	550.948410530534	1109.753785029925	967.593602880459	276.092039642736	1198.451598115644	805.843674146742	525.598922143253	1175.709474978498	682.047837688875	603.546597942663	1274.003433449944	655.526816431728	530.742241300330	1311.882930940650	552.130632012625	557.584133323173	1134.022682632449	744.198289440526	309.591613219286	1033.502963545647	637.469875289721	245.642895681489	1101.330748293582	551.710589299683	315.575267698549	1092.653049964534	485.352399436860	327.345307252700	1066.040794126465	416.016315662632	319.069287826256	975.361098037022	302.717976172184	269.356545240178	1019.336034459737	192.794952743903	346.499659366851	1257.707841336173	462.355402974673	564.289074501604	1152.149291451576	388.887862365406	620.473269441664	1176.043621408021	279.219598710643	576.436920784133	1007.156773544605	164.325733062997	540.226756809925	1182.091850073314	149.837670653388	594.397330338620	1073.779174641483	120.809578123230	618.286673540341	1269.074348400797	53.823792748858	624.270017484305	887.125313822869	39.200048898201	391.528213277987	960.925934017522	35.824586720431	310.649545486169	1044.623360721494	96.720229584636	337.674733211105	1172.970576341558	43.160881716285	309.055929203492	1140.320970875877	1111.339613771767	109.667191883536	1366.658056228154	981.533419582853	122.879629706973	995.898143189943	1086.912849683378	690.956665249557	1047.438794908016	829.817821972186	697.173925565337	
110	21.225714285714	881.708534093464	1011.949047548406	412.288591498883	1093.096218986992	1443.892703023183	262.529077446703	1173.169916300613	1365.743489706315	432.421939824175	1068.673721167347	1435.781729640761	597.321411459616	1069.130622634755	1499.393739786638	417.049999707060	1096.782417978711	949.843052051021	551.120220542304	1108.988241465875	967.020110019137	276.058334627265	1197.064457881626	805.184602441982	526.362113797715	1173.209704103584	680.838886290627	603.953328775523	1272.048101069445	654.576754423547	531.710273170156	1310.531408958331	553.460337767595	557.777908548312	1130.765549655814	742.777560812753	309.594578402366	1028.695653507246	637.274557146133	245.336643506004	1095.136426946367	550.640179447776	315.171587773685	1085.671357909254	484.552354653793	326.821890990844	1058.717649897844	415.472791209984	318.707195466916	967.371763933107	302.670101166298	269.043051882884	1010.658323589670	192.547882870760	346.383185311309	1261.260662082314	462.629920404919	564.646037118154	1161.882172032233	382.837465409887	622.826895682035	1192.043261531984	274.886591893658	578.203505203920	1030.947834727659	149.035198041101	544.650944363654	1206.865123580847	146.113883905760	596.299814746183	1101.153280746659	110.433217003826	621.964750903933	1300.008602277388	56.454088694008	625.514777412769	877.935403443693	39.276263910195	391.469388040568	951.704788176995	35.800706744926	310.624353854539	1035.446625702028	96.673316063870	337.597551176190	1163.759403376462	43.069009748979	309.028438078969	1146.954882622098	1113.824206603650	108.443861891047	1379.383114179130	996.397076649913	124.182274256402	985.810007858642	1088.059359657324	690.747716454547	1020.636199890355	828.147571721209	699.075252252661	
111	21.237142857143	881.244100268565	1011.410144847025	412.091505945421	1093.659399011578	1443.634822239066	263.563047346415	1172.973197417350	1364.758389095469	433.464013835317	1068.069214884008	1434.511525624606	598.187708175942	1069.176844216717	1498.683269750531	417.985518845787	1096.161463098580	949.138896526223	551.372549057891	1108.414073915582	966.368357104178	276.077067617065	1195.469174234836	803.607247814057	527.157023503959	1170.107033782583	678.847772424899	604.395848389672	1269.193533946209	652.466537136033	532.463747158974	1308.091170683758	553.798066860246	557.632283929120	1127.683463739188	741.309667696911	309.580382624596	1023.998732832001	637.029413557152	245.120049482111	1089.129275188304	549.553451130370	314.810224425783	1078.901942210380	483.694173685245	326.344582274099	1051.540408640335	414.888903147751	318.398282010720	959.465950090088	302.634964393331	268.778910083512	1002.029729010314	192.276253528289	346.284317181509	1263.846648812023	462.343078157850	564.859467832278	1171.236838732129	376.554987324367	625.235720769913	1207.621832583320	270.723112802331	579.956542639840	1055.294931982139	134.029718484118	549.177812555378	1231.375486116467	143.107715544050	598.216195163179	1128.814936109037	100.804675175513	625.747546664383	1330.416002935245	60.499227787220	626.839569202362	868.746723394397	39.356740105140	391.417076121321	942.483677142761	35.780358178027	310.606751977898	1026.268846239442	96.620078929778	337.531481549544	1154.538313438021	42.967844596048	309.011549419136	1153.118316446008	1116.249844113071	107.429823006826	1390.779955204501	1011.276291232395	125.869599727631	975.270169623290	1089.715329585606	690.675883598704	994.984201123334	828.325188586080	700.706773072886	
